# xmcd
#
# Track frame offsets:
#	150
#	20872
#	40661
#	57635
#	76652
#	93050
#	110765
#	129301
#	145180
#	161578
#	181183
#	200130
#	216048
#	232138
#	249308
#	270445
#	291253
#	308002
#
# Disc length: 4373 seconds
#
# Revision: 1
# Processed by: cddbd v1.5.2PL0 Copyright (c) Steve Scherf et al.
# Submitted via: EZCDAudioConverter 9.1.1.1
#
DISCID=fd111312
DTITLE=Variouis Artist - 99년 가요 POP
DYEAR=1999
DGENRE=Pop
TTITLE0=HOT - Lyah
TTITLE1=조성모 - 슬픈영혼식
TTITLE2=BabyVox - KIller
TTITLE3=핑클 - Waiting for You
TTITLE4=BabyVox - Get up
TTITLE5=컨츄리꼬꼬 - GimmmeGimme
TTITLE6=양파 - Addio
TTITLE7=박지윤 - 가버려
TTITLE8=BabyVox - Get up
TTITLE9=티샤니 - 하루하루
TTITLE10=이승철 - 오직 너뿐인 나를
TTITLE11=Y2K - 헤어진 후에
TTITLE12=샤프 - Tell Me Tell Me
TTITLE13=스페이스A - 성숙
TTITLE14=두리안 - I`m still loving you
TTITLE15=유리상자 - 신부에게
TTITLE16=이무네 - 애수
TTITLE17=티샤니 - More than I can say
EXTD=
EXTT0=
EXTT1=
EXTT2=
EXTT3=
EXTT4=
EXTT5=
EXTT6=
EXTT7=
EXTT8=
EXTT9=
EXTT10=
EXTT11=
EXTT12=
EXTT13=
EXTT14=
EXTT15=
EXTT16=
EXTT17=
PLAYORDER=
